<svg width="57" height="53" viewBox="0 0 57 53" fill="none" xmlns="http://www.w3.org/2000/svg">
<rect width="57" height="53" rx="22" fill="#6DB6FE"/>
<path d="M39.6738 12H37.1476C36.6892 11.9987 36.2352 12.0884 35.8117 12.2639C35.3882 12.4394 35.0038 12.6972 34.6807 13.0224L24.9562 22.7457C23.0944 22.2653 21.1264 22.4104 19.3551 23.1586C17.5839 23.9067 16.1078 25.2165 15.1542 26.8861C14.2005 28.5557 13.8223 30.4925 14.0777 32.3983C14.3331 34.304 15.208 36.0729 16.5676 37.4324C17.9271 38.792 19.696 39.6669 21.6017 39.9223C23.5075 40.1777 25.4443 39.7995 27.1139 38.8458C28.7835 37.8922 30.0933 36.4161 30.8414 34.6449C31.5896 32.8736 31.7347 30.9056 31.2543 29.0438L32.6953 27.6027V24.7939H36.1846V21.3047H38.9923L40.9776 19.3193C41.3027 18.9959 41.5604 18.6112 41.7359 18.1876C41.9114 17.764 42.0011 17.3098 42 16.8512V14.3262C42 13.7092 41.7549 13.1176 41.3187 12.6813C40.8824 12.2451 40.2908 12 39.6738 12ZM39.6738 16.8512C39.6739 17.0041 39.6439 17.1556 39.5854 17.2969C39.527 17.4382 39.4412 17.5666 39.333 17.6747L38.0292 18.9785H33.8584V22.4677H30.3692V26.6374L28.5722 28.4343C28.9815 29.2961 29.1978 30.2368 29.2061 31.1908C29.2061 32.456 28.8309 33.6928 28.128 34.7448C27.4251 35.7967 26.4261 36.6167 25.2572 37.1008C24.0883 37.585 22.8021 37.7117 21.5612 37.4649C20.3203 37.218 19.1805 36.6088 18.2859 35.7141C17.3912 34.8195 16.782 33.6797 16.5351 32.4388C16.2883 31.1979 16.415 29.9117 16.8992 28.7428C17.3833 27.5739 18.2033 26.5749 19.2552 25.872C20.3072 25.1691 21.544 24.7939 22.8092 24.7939C23.7697 24.7311 24.7276 24.9511 25.5645 25.4266L36.3253 14.667C36.544 14.4498 36.8394 14.3274 37.1476 14.3262H39.6738V16.8512ZM19.9015 32.9354C19.9015 33.1655 19.9697 33.3904 20.0975 33.5816C20.2253 33.7729 20.4069 33.922 20.6195 34.01C20.832 34.098 21.0658 34.1211 21.2915 34.0762C21.5171 34.0313 21.7243 33.9205 21.887 33.7579C22.0496 33.5952 22.1604 33.388 22.2053 33.1624C22.2502 32.9367 22.2271 32.7029 22.1391 32.4904C22.0511 32.2778 21.902 32.0962 21.7107 31.9684C21.5195 31.8406 21.2946 31.7724 21.0646 31.7724C20.7561 31.7724 20.4602 31.8949 20.2421 32.113C20.024 32.3311 19.9015 32.627 19.9015 32.9354Z" fill="#F1FFF3"/>
</svg>
