<svg width="57" height="53" viewBox="0 0 57 53" fill="none" xmlns="http://www.w3.org/2000/svg">
<rect width="57" height="53" rx="22" fill="#6DB6FE"/>
<path d="M27.6667 23.6667C25.415 23.6667 23.5833 25.4983 23.5833 27.75C23.5833 30.0017 25.415 31.8333 27.6667 31.8333C29.9183 31.8333 31.75 30.0017 31.75 27.75C31.75 25.4983 29.9183 23.6667 27.6667 23.6667ZM27.6667 29.5C26.7018 29.5 25.9167 28.7148 25.9167 27.75C25.9167 26.7852 26.7018 26 27.6667 26C28.6315 26 29.4167 26.7852 29.4167 27.75C29.4167 28.7148 28.6315 29.5 27.6667 29.5ZM36.9405 18.4587L32.8758 14.3917C31.3323 12.8493 29.2813 12 27.1008 12H21.8333C18.6168 12 16 14.6168 16 17.8333V34.1667C16 37.3832 18.6168 40 21.8333 40H33.5C36.7165 40 39.3333 37.3832 39.3333 34.1667V24.2325C39.3333 22.0497 38.4828 20.001 36.9405 18.4587ZM35.2908 20.1095C35.6618 20.4793 35.9757 20.8912 36.23 21.3345H31.1655C30.5215 21.3345 29.9988 20.8107 29.9988 20.1678V15.1022C30.4422 15.3565 30.854 15.6703 31.225 16.0413L35.2897 20.1083L35.2908 20.1095ZM24.3673 37.6678C24.8492 36.3098 26.1453 35.3345 27.6667 35.3345C29.188 35.3345 30.4842 36.3098 30.966 37.6678H24.3673ZM37 34.1678C37 36.0975 35.4297 37.6678 33.5 37.6678H33.3822C32.8397 35.009 30.483 33.0012 27.6667 33.0012C24.8503 33.0012 22.4925 35.009 21.9512 37.6678H21.8333C19.9037 37.6678 18.3333 36.0975 18.3333 34.1678V17.8333C18.3333 15.9037 19.9037 14.3333 21.8333 14.3333H27.1008C27.291 14.3333 27.48 14.3427 27.6667 14.3602V20.1667C27.6667 22.0963 29.237 23.6667 31.1667 23.6667H36.9732C36.9907 23.8533 37 24.0423 37 24.2325V34.1678Z" fill="#F1FFF3"/>
</svg>
