<svg width="30" height="25" viewBox="0 0 30 25" fill="none" xmlns="http://www.w3.org/2000/svg">
<path d="M1.66664 17.4738L15.1666 24L28.6666 17.4738M1.66663 12.3985L14.7308 18.7095C14.8627 18.7723 15.008 18.8049 15.1552 18.8049C15.3024 18.8049 15.4476 18.7723 15.5795 18.7095L28.6552 12.3875M2.41793 7.8252L14.9143 13.8935C14.9928 13.9305 15.0792 13.9498 15.1666 13.9498C15.2541 13.9498 15.3404 13.9305 15.4189 13.8935L27.9211 7.8252C27.991 7.79109 28.0497 7.73901 28.0908 7.67474C28.1318 7.61047 28.1536 7.53652 28.1536 7.4611C28.1536 7.38567 28.1318 7.31173 28.0908 7.24746C28.0497 7.18319 27.991 7.13111 27.9211 7.097L15.4189 1.05627C15.3404 1.01925 15.2541 1 15.1666 1C15.0792 1 14.9928 1.01925 14.9143 1.05627L2.41793 7.12458C2.35497 7.16082 2.30284 7.21214 2.26665 7.27354C2.23046 7.33494 2.21141 7.40431 2.21141 7.47489C2.21141 7.54547 2.23046 7.61484 2.26665 7.67624C2.30284 7.73763 2.35497 7.78896 2.41793 7.8252Z" stroke="url(#paint0_linear_309_7114)" stroke-width="2" stroke-linecap="round" stroke-linejoin="round"/>
<defs>
<linearGradient id="paint0_linear_309_7114" x1="10.1623" y1="0.215908" x2="31.2821" y2="11.3302" gradientUnits="userSpaceOnUse">
<stop stop-color="#0DA6C2"/>
<stop offset="1" stop-color="#0E39C6"/>
</linearGradient>
</defs>
</svg>
