<svg width="24" height="22" viewBox="0 0 24 22" fill="none" xmlns="http://www.w3.org/2000/svg">
<rect width="23.6604" height="22" rx="9.13208" fill="url(#paint0_linear_245_892)"/>
<path d="M7.03896 9.56633H16.8971M7.4679 4.98096V7.3392M10.2382 4.98096V7.3392M13.6997 4.98096V7.3392M16.4701 4.98096V7.3392M5.93195 6.33896H18.006C18.1481 6.33896 18.2843 6.3954 18.3848 6.49587C18.4853 6.59633 18.5417 6.73259 18.5417 6.87467V15.506C18.5417 15.7971 18.4261 16.0763 18.2202 16.2821C18.0144 16.488 17.7352 16.6036 17.4441 16.6036H6.49388C6.20277 16.6036 5.92358 16.488 5.71773 16.2821C5.51188 16.0763 5.39624 15.7971 5.39624 15.506V6.87467C5.39624 6.73259 5.45268 6.59633 5.55315 6.49587C5.65361 6.3954 5.78987 6.33896 5.93195 6.33896Z" stroke="white" stroke-width="0.936554" stroke-linecap="round" stroke-linejoin="round"/>
<defs>
<linearGradient id="paint0_linear_245_892" x1="7.44486" y1="-0.750001" x2="26.6206" y2="8.49501" gradientUnits="userSpaceOnUse">
<stop stop-color="#0DA6C2"/>
<stop offset="1" stop-color="#0E39C6"/>
</linearGradient>
</defs>
</svg>
