<svg width="16" height="18" viewBox="0 0 16 18" fill="none" xmlns="http://www.w3.org/2000/svg">
<path d="M2.09896 4.84617C2.31459 4.96048 2.43511 5.10142 2.514 5.32627C2.5176 5.37774 2.51909 5.42935 2.5192 5.48092C2.51937 5.51259 2.51953 5.54425 2.5197 5.57687C2.51968 5.62907 2.51968 5.62907 2.51966 5.68232C2.51986 5.73776 2.51986 5.73776 2.52008 5.79432C2.52049 5.91876 2.52064 6.04319 2.52078 6.16762C2.52103 6.25661 2.52129 6.3456 2.52158 6.43458C2.52215 6.62654 2.52261 6.8185 2.52298 7.01046C2.52352 7.28841 2.52435 7.56636 2.52526 7.84431C2.52674 8.29578 2.52811 8.74725 2.52935 9.19872C2.52942 9.22575 2.5295 9.25278 2.52957 9.28063C2.53062 9.66378 2.53155 10.0469 2.53244 10.4301C2.5325 10.457 2.53256 10.484 2.53263 10.5118C2.53269 10.5387 2.53275 10.5656 2.53282 10.5933C2.53386 11.0428 2.53521 11.4922 2.53679 11.9417C2.53767 12.194 2.5384 12.4462 2.53877 12.6985C2.53911 12.9359 2.53982 13.1733 2.54079 13.4108C2.54108 13.4978 2.54124 13.5848 2.54126 13.6719C2.5413 13.7909 2.54182 13.91 2.54245 14.029C2.54235 14.0633 2.54225 14.0975 2.54214 14.1327C2.5459 14.5874 2.6665 14.9891 2.95346 15.3597C3.33982 15.7101 3.80784 15.8325 4.33166 15.8332C4.36001 15.8333 4.38836 15.8334 4.41758 15.8334C4.5119 15.8337 4.60623 15.8336 4.70056 15.8336C4.76847 15.8337 4.83638 15.8339 4.90429 15.834C5.0883 15.8343 5.27232 15.8344 5.45634 15.8344C5.57144 15.8345 5.68653 15.8345 5.80163 15.8346C6.20352 15.835 6.60541 15.8351 7.00731 15.8351C7.38134 15.8351 7.75538 15.8355 8.12942 15.8361C8.45105 15.8365 8.77268 15.8367 9.09431 15.8367C9.28619 15.8367 9.47806 15.8368 9.66993 15.8372C9.85048 15.8376 10.031 15.8376 10.2116 15.8373C10.2776 15.8373 10.3436 15.8373 10.4097 15.8376C10.8365 15.8389 11.2404 15.8395 11.6278 15.6473C11.6843 15.6199 11.6843 15.6199 11.7421 15.5919C12.1096 15.3855 12.3153 15.062 12.4359 14.6778C12.4758 14.4649 12.4806 14.2586 12.4803 14.0432C12.4804 14.006 12.4806 13.9688 12.4807 13.9305C12.481 13.8062 12.481 13.6818 12.4811 13.5575C12.4813 13.4683 12.4815 13.379 12.4817 13.2898C12.4821 13.0977 12.4825 12.9057 12.4827 12.7136C12.4831 12.4101 12.4839 12.1065 12.4848 11.8029C12.4851 11.6989 12.4854 11.595 12.4857 11.491C12.4858 11.4521 12.4858 11.4521 12.4859 11.4123C12.4867 11.117 12.4874 10.8216 12.4881 10.5263C12.4882 10.4993 12.4883 10.4723 12.4883 10.4445C12.4894 10.0068 12.4901 9.56919 12.4907 9.13153C12.4914 8.6819 12.4925 8.23228 12.4941 7.78265C12.495 7.50545 12.4955 7.22826 12.4956 6.95106C12.4957 6.73873 12.4964 6.52641 12.4973 6.31409C12.4976 6.22699 12.4977 6.13989 12.4975 6.0528C12.4974 5.93401 12.4979 5.81525 12.4987 5.69646C12.4985 5.66191 12.4983 5.62736 12.498 5.59176C12.5006 5.34993 12.5503 5.19583 12.7166 5.0062C12.9517 4.81759 13.1533 4.74291 13.4642 4.75557C13.7316 4.79154 13.8983 4.91441 14.0677 5.10811C14.2084 5.31294 14.2049 5.50056 14.2041 5.73788C14.2043 5.77593 14.2045 5.81399 14.2047 5.85319C14.2052 5.98089 14.2051 6.10859 14.205 6.23629C14.2053 6.32779 14.2055 6.41929 14.2058 6.51079C14.2065 6.73375 14.2067 6.95671 14.2067 7.17967C14.2068 7.36114 14.2069 7.54261 14.2072 7.72408C14.2079 8.23933 14.2082 8.75458 14.2082 9.26984C14.2082 9.29761 14.2082 9.32538 14.2082 9.354C14.2082 9.38181 14.2082 9.40961 14.2082 9.43826C14.2081 9.88789 14.2089 10.3375 14.21 10.7871C14.2111 11.2496 14.2116 11.712 14.2116 12.1744C14.2115 12.4337 14.2118 12.693 14.2126 12.9523C14.2134 13.1966 14.2134 13.4408 14.2128 13.6851C14.2127 13.7744 14.2129 13.8636 14.2134 13.9529C14.2185 14.9885 13.9996 15.8467 13.2165 16.614C12.64 17.1503 11.8317 17.4667 11.0278 17.4665C10.9968 17.4666 10.9658 17.4668 10.9338 17.4669C10.8303 17.4673 10.7268 17.4675 10.6232 17.4676C10.5489 17.4678 10.4745 17.4681 10.4001 17.4683C10.156 17.4691 9.91188 17.4695 9.66778 17.4699C9.58351 17.47 9.49925 17.4702 9.41498 17.4703C9.0188 17.471 8.62263 17.4716 8.22645 17.4719C7.77042 17.4722 7.31439 17.4732 6.85836 17.4747C6.50511 17.4758 6.15186 17.4764 5.79861 17.4765C5.58801 17.4766 5.37743 17.4769 5.16683 17.4779C4.96833 17.4787 4.76984 17.4789 4.57134 17.4785C4.49899 17.4785 4.42664 17.4787 4.35429 17.4792C3.33887 17.486 2.46901 17.2171 1.72589 16.5327C1.12968 15.9542 0.828406 15.1708 0.828567 14.3708C0.828423 14.3325 0.82828 14.2942 0.828132 14.2547C0.827702 14.1264 0.827551 13.998 0.827402 13.8696C0.827157 13.7776 0.826897 13.6855 0.826624 13.5935C0.825874 13.3174 0.825459 13.0413 0.825111 12.7652C0.82494 12.6351 0.82473 12.505 0.824526 12.3748C0.823862 11.9421 0.823295 11.5094 0.823012 11.0768C0.822937 10.9646 0.822862 10.8524 0.822786 10.7403C0.822767 10.7124 0.822748 10.6845 0.822729 10.6558C0.822404 10.2041 0.821414 9.75229 0.820146 9.30053C0.818854 8.83639 0.818151 8.37226 0.818026 7.90812C0.817941 7.64765 0.8176 7.38718 0.816602 7.12671C0.815665 6.88176 0.815526 6.63681 0.815928 6.39186C0.815948 6.30198 0.8157 6.2121 0.815164 6.12223C0.814474 5.99948 0.814749 5.87676 0.815263 5.75401C0.814835 5.7185 0.814406 5.68299 0.813965 5.6464C0.816587 5.387 0.878517 5.18986 1.05877 4.99142C1.08058 4.97487 1.10238 4.95832 1.12484 4.94126C1.14655 4.92414 1.16825 4.90701 1.19061 4.88937C1.4722 4.71473 1.79746 4.71601 2.09896 4.84617Z" fill="#FC0000"/>
<path d="M5.00863 0.00936908C5.05446 0.00905253 5.10029 0.00873599 5.14751 0.00840986C5.22243 0.00846031 5.22243 0.00846031 5.29886 0.00851178C5.35226 0.00828958 5.40566 0.00803701 5.45906 0.00775641C5.60385 0.00710169 5.74864 0.00692684 5.89344 0.00687946C5.984 0.00682664 6.07455 0.00666808 6.16511 0.00647146C6.48131 0.0057851 6.7975 0.00548171 7.1137 0.00554013C7.40799 0.0055847 7.70228 0.00480195 7.99657 0.00362947C8.24959 0.00265748 8.50262 0.00226092 8.75565 0.00230831C8.90661 0.00232719 9.05756 0.00211796 9.20852 0.00133025C9.35059 0.000609121 9.49265 0.000607611 9.63472 0.00114594C9.71135 0.00125994 9.78798 0.000642965 9.86461 0C10.2018 0.00227419 10.4219 0.0386169 10.6707 0.269781C10.8627 0.540725 10.8902 0.77145 10.8848 1.08967C10.8847 1.12714 10.8845 1.16461 10.8843 1.20321C10.8837 1.32193 10.8822 1.44062 10.8807 1.55933C10.8801 1.64022 10.8796 1.72111 10.8791 1.80199C10.8778 1.99943 10.8759 2.19686 10.8734 2.39429C10.9381 2.39368 10.9381 2.39368 11.0042 2.39304C11.4122 2.38927 11.8202 2.3865 12.2283 2.38468C12.438 2.38371 12.6478 2.3824 12.8575 2.3803C13.0601 2.37827 13.2627 2.37717 13.4654 2.37669C13.5425 2.37635 13.6195 2.37568 13.6966 2.37468C14.5009 2.3646 14.5009 2.3646 14.7796 2.57984C15.0067 2.81068 15.0324 3.03163 15.03 3.3371C15.003 3.56213 14.8946 3.71069 14.716 3.85634C14.5453 3.97098 14.403 3.99465 14.1986 3.99498C14.1262 3.99523 14.1262 3.99523 14.0525 3.99548C13.9987 3.99548 13.9449 3.99547 13.8911 3.99546C13.8342 3.99558 13.7773 3.99572 13.7204 3.99587C13.5636 3.99624 13.4068 3.99638 13.25 3.99648C13.081 3.99662 12.9121 3.99698 12.7431 3.9973C12.3349 3.99804 11.9267 3.99841 11.5184 3.99874C11.3263 3.9989 11.1341 3.9991 10.9419 3.9993C10.3032 3.99993 9.66447 4.00047 9.02574 4.00074C8.85995 4.00081 8.69417 4.00088 8.52838 4.00095C8.46657 4.00098 8.46657 4.00098 8.40351 4.001C7.73586 4.00131 7.06821 4.00225 6.40055 4.00346C5.7153 4.00468 5.03005 4.00535 4.3448 4.00547C3.95997 4.00555 3.57514 4.00588 3.19031 4.00682C2.8626 4.00763 2.53489 4.00793 2.20718 4.00757C2.03997 4.0074 1.87278 4.00747 1.70557 4.00819C1.55244 4.00884 1.39932 4.00881 1.24618 4.00823C1.19085 4.00814 1.13551 4.0083 1.08018 4.00874C0.772978 4.01103 0.548537 4.00258 0.287441 3.84156C0.207027 3.76604 0.207027 3.76604 0.153163 3.6908C0.125443 3.65342 0.125443 3.65342 0.0971636 3.61528C-0.0287429 3.41372 -0.00215539 3.17729 0.0140032 2.95093C0.0941508 2.72652 0.249322 2.57616 0.467232 2.46406C0.646253 2.38161 0.800785 2.37414 0.997203 2.37744C1.04871 2.37741 1.04871 2.37741 1.10125 2.37738C1.2137 2.37748 1.32612 2.37863 1.43856 2.3798C1.51694 2.38007 1.59531 2.38029 1.67369 2.38043C1.87919 2.381 2.08468 2.38245 2.29017 2.3841C2.50018 2.38562 2.71018 2.3863 2.92019 2.38705C3.33168 2.38863 3.74315 2.39116 4.15463 2.39429C4.15425 2.37147 4.15387 2.34865 4.15348 2.32513C4.15 2.11188 4.14774 1.89863 4.14605 1.68536C4.14526 1.60509 4.1442 1.52483 4.14284 1.44458C4.14093 1.32869 4.14006 1.21282 4.13937 1.09691C4.13856 1.06149 4.13776 1.02607 4.13693 0.989569C4.13683 0.719538 4.1832 0.451224 4.37925 0.243839C4.56932 0.0778497 4.74927 0.0101808 5.00863 0.00936908ZM5.87338 1.615C5.87338 1.87216 5.87338 2.12933 5.87338 2.39429C6.95619 2.39429 8.039 2.39429 9.15463 2.39429C9.15463 2.13713 9.15463 1.87996 9.15463 1.615C8.07182 1.615 6.989 1.615 5.87338 1.615Z" fill="#FC0000"/>
<path d="M9.56695 6.40026C9.76985 6.51649 9.92442 6.67488 10.0139 6.88485C10.0242 6.99723 10.0242 6.99723 10.0249 7.1315C10.0251 7.15625 10.0253 7.18099 10.0256 7.20648C10.0262 7.28935 10.0264 7.37221 10.0265 7.45508C10.0268 7.51451 10.0272 7.57395 10.0276 7.63339C10.0287 7.79487 10.0292 7.95635 10.0295 8.11783C10.0298 8.21879 10.0301 8.31974 10.0304 8.4207C10.0315 8.73675 10.0322 9.0528 10.0325 9.36886C10.0329 9.73333 10.0343 10.0978 10.0365 10.4623C10.0382 10.7442 10.039 11.0261 10.0391 11.3081C10.0392 11.4764 10.0397 11.6446 10.0411 11.8129C10.0423 11.9714 10.0425 12.1297 10.0418 12.2882C10.0418 12.3461 10.0421 12.4041 10.0429 12.4621C10.047 12.7931 10.0336 13.0556 9.77951 13.3048C9.52089 13.5154 9.24664 13.5114 8.92013 13.4903C8.68247 13.4137 8.5441 13.2708 8.40782 13.0743C8.28835 12.8391 8.31208 12.5788 8.31336 12.3237C8.31308 12.2658 8.31274 12.2078 8.31234 12.1499C8.31146 11.9932 8.31157 11.8365 8.31192 11.6797C8.31212 11.5486 8.31183 11.4175 8.31155 11.2863C8.31089 10.9768 8.31102 10.6673 8.31168 10.3578C8.31234 10.0391 8.31172 9.72052 8.31046 9.40188C8.30941 9.12768 8.30913 8.85349 8.30946 8.5793C8.30966 8.41581 8.30957 8.25233 8.30877 8.08884C8.30805 7.93501 8.30829 7.7812 8.30925 7.62737C8.30944 7.57116 8.30931 7.51494 8.30881 7.45873C8.30619 7.13679 8.32135 6.85636 8.52951 6.58798C8.80368 6.34167 9.21088 6.27579 9.56695 6.40026Z" fill="#FC0000"/>
<path d="M5.82923 6.35345C5.87586 6.35283 5.92248 6.3522 5.97052 6.35156C6.21851 6.37596 6.37883 6.48372 6.53724 6.66192C6.72873 6.9381 6.71593 7.21218 6.71432 7.53165C6.7146 7.58959 6.71494 7.64753 6.71534 7.70547C6.71622 7.86219 6.71611 8.0189 6.71576 8.17563C6.71556 8.30676 6.71585 8.43789 6.71613 8.56902C6.71679 8.87854 6.71666 9.18806 6.716 9.49758C6.71534 9.81622 6.71596 10.1348 6.71722 10.4535C6.71827 10.7277 6.71855 11.0019 6.71822 11.2761C6.71803 11.4396 6.71811 11.603 6.71891 11.7665C6.71963 11.9204 6.71939 12.0742 6.71844 12.228C6.71824 12.2842 6.71837 12.3404 6.71887 12.3966C6.72149 12.7186 6.70633 12.999 6.49817 13.2674C6.26298 13.4787 6.04045 13.5037 5.72852 13.5C5.50907 13.483 5.36671 13.4239 5.21766 13.2696C5.05812 13.0755 5.00901 12.9407 5.00779 12.6924C5.00762 12.6678 5.00744 12.6432 5.00727 12.6179C5.00675 12.5353 5.0065 12.4528 5.00626 12.3702C5.00596 12.3111 5.00563 12.252 5.0053 12.1928C5.00427 11.9985 5.00367 11.8041 5.00312 11.6098C5.00291 11.5429 5.0027 11.4759 5.00249 11.409C5.00164 11.1305 5.00091 10.8521 5.00047 10.5736C4.99984 10.1747 4.99854 9.77586 4.99631 9.37698C4.9948 9.09642 4.99404 8.81587 4.99383 8.53531C4.99369 8.3678 4.99322 8.20029 4.99195 8.03278C4.99078 7.87509 4.99053 7.71742 4.99099 7.55972C4.991 7.50198 4.99068 7.44423 4.98999 7.3865C4.9836 6.81847 4.9836 6.81847 5.20911 6.5877C5.40977 6.41102 5.55528 6.35429 5.82923 6.35345Z" fill="#FC0000"/>
</svg>
