<svg width="9" height="19" viewBox="0 0 9 19" fill="none" xmlns="http://www.w3.org/2000/svg">
<path d="M8.77046 9.43038C8.78614 10.7502 8.27929 12.0228 7.36046 12.9704L1.65046 18.6204C1.45916 18.7842 1.21308 18.8698 0.961404 18.8601C0.709728 18.8504 0.470989 18.746 0.292894 18.5679C0.1148 18.3899 0.0104669 18.1511 0.000745778 17.8994C-0.00897538 17.6478 0.0766312 17.4017 0.240458 17.2104L5.90046 11.5504C6.44347 10.9781 6.74618 10.2193 6.74618 9.43038C6.74618 8.64148 6.44347 7.88266 5.90046 7.31038L0.240458 1.65038C0.0766312 1.45908 -0.00897538 1.21301 0.000745778 0.961329C0.0104669 0.709652 0.1148 0.470913 0.292894 0.292818C0.470989 0.114723 0.709728 0.0103931 0.961404 0.000671387C1.21308 -0.00905037 1.45916 0.0765553 1.65046 0.240381L7.36046 5.89038C8.27929 6.83801 8.78614 8.11053 8.77046 9.43038Z" fill="#7B78AA"/>
<path d="M8.27049 9.42444L8.27035 9.42444L8.27049 9.43633C8.28459 10.6225 7.82974 11.7662 7.005 12.6187L1.31376 18.2501C1.21985 18.3258 1.10157 18.3651 0.980702 18.3605C0.854865 18.3556 0.735495 18.3034 0.646448 18.2144C0.5574 18.1253 0.505234 18.006 0.500373 17.8801C0.495719 17.7596 0.534769 17.6417 0.610014 17.5479L6.25401 11.9039L6.25413 11.9041L6.26317 11.8945C6.89432 11.2294 7.24618 10.3473 7.24618 9.43038C7.24618 8.51342 6.89432 7.63141 6.26317 6.96623L6.26329 6.96611L6.25401 6.95683L0.61001 1.31283C0.534767 1.21905 0.495719 1.10112 0.500373 0.980627C0.505234 0.85479 0.5574 0.73542 0.646448 0.646372C0.735493 0.557325 0.854862 0.505159 0.980703 0.500299C1.10157 0.49563 1.21985 0.534931 1.31376 0.610626L7.005 6.24206C7.82974 7.09455 8.28459 8.23825 8.27049 9.42444Z" stroke="#6DB6FE" stroke-opacity="0.2"/>
</svg>
