<svg width="57" height="53" viewBox="0 0 57 53" fill="none" xmlns="http://www.w3.org/2000/svg">
<rect width="57" height="53" rx="22" fill="#6DB6FE"/>
<path d="M17.7853 31.0913C17.2356 32.4838 16.9695 33.972 17.0028 35.4687C17.0028 41.6749 39.4659 41.6749 39.477 35.4687C39.5102 33.972 39.2443 32.4838 38.6945 31.0913C38.1447 29.6988 37.3223 28.4302 36.2755 27.3599C35.2288 26.2896 33.9788 25.4392 32.5988 24.8586C31.2189 24.278 29.7369 23.979 28.2399 23.979C26.7428 23.979 25.2608 24.278 23.8809 24.8586C22.501 25.4392 21.251 26.2896 20.2042 27.3599C19.1575 28.4302 18.3351 29.6988 17.7853 31.0913Z" stroke="#F1FFF3" stroke-width="2.22242" stroke-linecap="round" stroke-linejoin="round"/>
<path d="M28.2316 21.023C30.7232 21.023 32.7431 19.0031 32.7431 16.5115C32.7431 14.0199 30.7232 12 28.2316 12C25.7399 12 23.72 14.0199 23.72 16.5115C23.72 19.0031 25.7399 21.023 28.2316 21.023Z" stroke="#F1FFF3" stroke-width="2.22242" stroke-linecap="round" stroke-linejoin="round"/>
</svg>
