<svg width="24" height="25" viewBox="0 0 24 25" fill="none" xmlns="http://www.w3.org/2000/svg">
<mask id="path-1-outside-1_309_6981" maskUnits="userSpaceOnUse" x="-0.502441" y="0" width="25" height="25" fill="black">
<rect fill="white" x="-0.502441" width="25" height="25"/>
<path fill-rule="evenodd" clip-rule="evenodd" d="M20.7956 9.45551L23.2594 11.9193C23.4149 12.0735 23.5023 12.2834 23.5023 12.5024C23.5023 12.7214 23.4149 12.9313 23.2594 13.0855C23.1052 13.2409 22.8953 13.3284 22.6763 13.3284C22.4573 13.3284 22.2474 13.2409 22.0932 13.0855L21.0338 12.0178V23.1787C21.0338 23.6323 20.6661 24 20.2125 24H3.78735C3.33379 24 2.9661 23.6323 2.9661 23.1787V12.0178L1.90667 13.0855C1.75247 13.2409 1.54256 13.3284 1.32358 13.3284C1.1046 13.3284 0.89469 13.2409 0.740485 13.0855C0.585011 12.9313 0.497559 12.7214 0.497559 12.5024C0.497559 12.2834 0.585011 12.0735 0.740485 11.9193L3.20426 9.45551L11.4168 1.24293C11.5711 1.08745 11.781 1 11.9999 1C12.2189 1 12.4288 1.08745 12.583 1.24293L20.7956 9.45551ZM4.60861 10.3754V22.3575H19.3913V10.3754L11.9999 2.98405L4.60861 10.3754Z"/>
</mask>
<path fill-rule="evenodd" clip-rule="evenodd" d="M20.7956 9.45551L23.2594 11.9193C23.4149 12.0735 23.5023 12.2834 23.5023 12.5024C23.5023 12.7214 23.4149 12.9313 23.2594 13.0855C23.1052 13.2409 22.8953 13.3284 22.6763 13.3284C22.4573 13.3284 22.2474 13.2409 22.0932 13.0855L21.0338 12.0178V23.1787C21.0338 23.6323 20.6661 24 20.2125 24H3.78735C3.33379 24 2.9661 23.6323 2.9661 23.1787V12.0178L1.90667 13.0855C1.75247 13.2409 1.54256 13.3284 1.32358 13.3284C1.1046 13.3284 0.89469 13.2409 0.740485 13.0855C0.585011 12.9313 0.497559 12.7214 0.497559 12.5024C0.497559 12.2834 0.585011 12.0735 0.740485 11.9193L3.20426 9.45551L11.4168 1.24293C11.5711 1.08745 11.781 1 11.9999 1C12.2189 1 12.4288 1.08745 12.583 1.24293L20.7956 9.45551ZM4.60861 10.3754V22.3575H19.3913V10.3754L11.9999 2.98405L4.60861 10.3754Z" fill="url(#paint0_linear_309_6981)"/>
<path d="M23.2594 11.9193L22.9058 12.2728L22.9073 12.2743L23.2594 11.9193ZM20.7956 9.45551L20.4421 9.80907L20.7956 9.45551ZM23.2594 13.0855L22.9073 12.7305L22.9044 12.7334L23.2594 13.0855ZM22.0932 13.0855L22.4482 12.7334L22.4481 12.7333L22.0932 13.0855ZM21.0338 12.0178L21.3887 11.6657L20.5338 10.8041V12.0178H21.0338ZM2.9661 12.0178H3.4661V10.8041L2.61118 11.6657L2.9661 12.0178ZM1.90667 13.0855L1.55176 12.7333L1.55167 12.7334L1.90667 13.0855ZM0.740485 13.0855L1.0955 12.7334L1.09259 12.7305L0.740485 13.0855ZM0.740485 11.9193L1.09259 12.2743L1.09404 12.2728L0.740485 11.9193ZM3.20426 9.45551L3.55781 9.80907L3.20426 9.45551ZM11.4168 1.24293L11.7704 1.59648L11.7718 1.59503L11.4168 1.24293ZM12.583 1.24293L12.228 1.59503L12.2295 1.59648L12.583 1.24293ZM4.60861 22.3575H4.10861V22.8575H4.60861V22.3575ZM4.60861 10.3754L4.25506 10.0218L4.10861 10.1683V10.3754H4.60861ZM19.3913 22.3575V22.8575H19.8913V22.3575H19.3913ZM19.3913 10.3754H19.8913V10.1683L19.7448 10.0218L19.3913 10.3754ZM11.9999 2.98405L12.3535 2.6305L11.9999 2.27694L11.6464 2.6305L11.9999 2.98405ZM23.6129 11.5657L21.1492 9.10196L20.4421 9.80907L22.9058 12.2728L23.6129 11.5657ZM24.0023 12.5024C24.0023 12.1501 23.8616 11.8124 23.6115 11.5643L22.9073 12.2743C22.9681 12.3346 23.0023 12.4167 23.0023 12.5024H24.0023ZM23.6115 13.4405C23.8616 13.1924 24.0023 12.8547 24.0023 12.5024H23.0023C23.0023 12.588 22.9681 12.6702 22.9073 12.7305L23.6115 13.4405ZM22.6763 13.8284C23.0286 13.8284 23.3663 13.6877 23.6144 13.4376L22.9044 12.7334C22.8441 12.7942 22.762 12.8284 22.6763 12.8284V13.8284ZM21.7382 13.4376C21.9863 13.6877 22.324 13.8284 22.6763 13.8284V12.8284C22.5906 12.8284 22.5085 12.7942 22.4482 12.7334L21.7382 13.4376ZM20.6789 12.37L21.7383 13.4377L22.4481 12.7333L21.3887 11.6657L20.6789 12.37ZM21.5338 23.1787V12.0178H20.5338V23.1787H21.5338ZM20.2125 24.5C20.9422 24.5 21.5338 23.9085 21.5338 23.1787H20.5338C20.5338 23.3562 20.3899 23.5 20.2125 23.5V24.5ZM3.78735 24.5H20.2125V23.5H3.78735V24.5ZM2.4661 23.1787C2.4661 23.9085 3.05764 24.5 3.78735 24.5V23.5C3.60993 23.5 3.4661 23.3562 3.4661 23.1787H2.4661ZM2.4661 12.0178V23.1787H3.4661V12.0178H2.4661ZM2.26159 13.4377L3.32101 12.37L2.61118 11.6657L1.55176 12.7333L2.26159 13.4377ZM1.32358 13.8284C1.67588 13.8284 2.01358 13.6877 2.26167 13.4376L1.55167 12.7334C1.49135 12.7942 1.40924 12.8284 1.32358 12.8284V13.8284ZM0.385485 13.4376C0.633574 13.6877 0.971282 13.8284 1.32358 13.8284V12.8284C1.23792 12.8284 1.15581 12.7942 1.09549 12.7334L0.385485 13.4376ZM-0.00244141 12.5024C-0.00244141 12.8547 0.138254 13.1924 0.388384 13.4405L1.09259 12.7305C1.03177 12.6702 0.997559 12.588 0.997559 12.5024H-0.00244141ZM0.388384 11.5643C0.138254 11.8124 -0.00244141 12.1501 -0.00244141 12.5024H0.997559C0.997559 12.4167 1.03177 12.3346 1.09259 12.2743L0.388384 11.5643ZM2.85071 9.10196L0.386932 11.5657L1.09404 12.2728L3.55781 9.80907L2.85071 9.10196ZM11.0633 0.889374L2.85071 9.10196L3.55781 9.80907L11.7704 1.59648L11.0633 0.889374ZM11.9999 0.5C11.6476 0.5 11.3099 0.640695 11.0618 0.890826L11.7718 1.59503C11.8322 1.53421 11.9143 1.5 11.9999 1.5V0.5ZM12.938 0.890826C12.6899 0.640695 12.3522 0.5 11.9999 0.5V1.5C12.0856 1.5 12.1677 1.53421 12.228 1.59503L12.938 0.890826ZM21.1492 9.10196L12.9366 0.889374L12.2295 1.59648L20.4421 9.80907L21.1492 9.10196ZM5.10861 22.3575V10.3754H4.10861V22.3575H5.10861ZM19.3913 21.8575H4.60861V22.8575H19.3913V21.8575ZM18.8913 10.3754V22.3575H19.8913V10.3754H18.8913ZM11.6464 3.3376L19.0377 10.7289L19.7448 10.0218L12.3535 2.6305L11.6464 3.3376ZM4.96217 10.7289L12.3535 3.3376L11.6464 2.6305L4.25506 10.0218L4.96217 10.7289Z" fill="url(#paint1_linear_309_6981)" mask="url(#path-1-outside-1_309_6981)"/>
<defs>
<linearGradient id="paint0_linear_309_6981" x1="7.73613" y1="0.215908" x2="26.8678" y2="8.7942" gradientUnits="userSpaceOnUse">
<stop stop-color="#0DA6C2"/>
<stop offset="1" stop-color="#0E39C6"/>
</linearGradient>
<linearGradient id="paint1_linear_309_6981" x1="7.73613" y1="0.215908" x2="26.8678" y2="8.7942" gradientUnits="userSpaceOnUse">
<stop stop-color="#0DA6C2"/>
<stop offset="1" stop-color="#0E39C6"/>
</linearGradient>
</defs>
</svg>
